# Blender 4.1.1
# www.blender.org
mtllib city_edificio_gemelo5.mtl
o pasted__pCube28
v -349.000000 0.199994 -82.000000
v -332.000000 0.199994 -82.000000
v -349.000000 6.699994 -82.000000
v -332.000000 6.699994 -82.000000
v -349.000000 6.699993 -97.000000
v -332.000000 6.699993 -97.000000
v -349.000000 0.199993 -97.000000
v -332.000000 0.199993 -97.000000
vn -0.0000 -0.0000 1.0000
vn -0.0000 -0.0000 -1.0000
vn 1.0000 -0.0000 -0.0000
vn -1.0000 -0.0000 -0.0000
vt 0.376572 0.073035
vt 0.624026 0.073581
vt 0.624026 0.270580
vt 0.376572 0.271742
vt 0.623828 0.271918
vt 0.940330 0.271918
vt 0.940330 0.439659
vt 0.623828 0.439659
vt 0.940330 0.271918
vt 0.940330 0.439659
s 1
usemtl LMProjects.004
f 1/1/1 2/2/1 4/3/1 3/4/1
f 5/4/2 6/3/2 8/2/2 7/1/2
f 2/5/3 8/6/3 6/7/3 4/8/3
f 7/5/4 1/9/4 3/10/4 5/8/4
