# Blender 4.1.1
# www.blender.org
mtllib city_edificio_gemelo8.mtl
o LMProjects2_pasted__group65_pasted__pCube39
v -348.532898 24.243971 -81.872780
v -341.072815 24.243971 -81.872780
v -348.532898 26.379671 -81.872780
v -341.072815 26.379671 -81.872780
v -340.468903 7.952055 -81.872780
v -332.502960 7.952055 -81.872780
v -340.468903 10.087754 -81.872780
v -332.502960 10.087754 -81.872780
v -313.481018 15.676744 -81.872780
v -306.020935 15.676744 -81.872780
v -313.481018 17.812445 -81.872780
v -306.020935 17.812445 -81.872780
v -305.417023 15.676744 -81.872780
v -297.451080 15.676744 -81.872780
v -305.417023 17.812445 -81.872780
v -297.451080 17.812445 -81.872780
v -305.417023 7.952055 -81.872780
v -297.451080 7.952055 -81.872780
v -305.417023 10.087754 -81.872780
v -297.451080 10.087754 -81.872780
v -296.842865 15.676744 -89.936607
v -296.842865 15.676744 -88.622284
v -296.842865 17.812443 -89.936607
v -296.842865 17.812443 -88.622284
v -296.842865 24.243969 -94.604607
v -296.842865 24.243969 -93.290283
v -296.842865 26.379669 -94.604607
v -296.842865 26.379669 -93.290283
v -349.195709 15.676744 -89.936607
v -349.195709 15.676744 -88.622284
v -349.195709 17.812443 -89.936607
v -349.195709 17.812443 -88.622284
v -349.195709 15.676744 -85.306953
v -349.195709 15.676744 -83.992622
v -349.195709 17.812445 -85.306953
v -349.195709 17.812445 -83.992622
v -349.195709 24.243971 -85.306953
v -349.195709 24.243971 -83.992622
v -349.195709 26.379671 -85.306953
v -349.195709 26.379671 -83.992622
vn -0.0000 -0.0000 1.0000
vn 1.0000 -0.0000 -0.0000
vn -1.0000 -0.0000 -0.0000
vt 0.946997 0.232287
vt 0.946997 0.335619
vt 0.998046 0.335619
vt 0.998046 0.232287
vt 0.946997 0.025596
vt 0.946997 0.126989
vt 0.998046 0.126989
vt 0.998046 0.025596
vt 0.946997 0.128961
vt 0.946997 0.230387
vt 0.998046 0.230387
vt 0.998046 0.128961
vt 0.987275 0.860056
vt 0.987275 0.928950
vt 0.951258 0.928950
vt 0.951258 0.860056
vt 0.987275 0.860126
vt 0.987275 0.929020
vt 0.951258 0.929020
vt 0.951258 0.860126
vt 0.987275 0.929042
vt 0.951258 0.929042
vt 0.951258 0.997936
vt 0.987275 0.997936
vt 0.987275 0.929267
vt 0.951258 0.929267
vt 0.951258 0.998161
vt 0.987275 0.998161
s 1
usemtl LMProjects1GLOW.001
f 1/1/1 2/2/1 4/3/1 3/4/1
f 5/5/1 6/6/1 8/7/1 7/8/1
f 9/9/1 10/10/1 12/11/1 11/12/1
f 13/5/1 14/6/1 16/7/1 15/8/1
f 17/5/1 18/6/1 20/7/1 19/8/1
f 21/13/2 23/14/2 24/15/2 22/16/2
f 25/17/2 27/18/2 28/19/2 26/20/2
f 29/13/3 30/16/3 32/15/3 31/14/3
f 33/21/3 34/22/3 36/23/3 35/24/3
f 37/25/3 38/26/3 40/27/3 39/28/3
