# Blender 4.1.1
# www.blender.org
mtllib city_edificio_gemelo11.mtl
o pasted__pCube18
v -320.500000 0.199993 -84.000000
v -314.000000 0.199993 -84.000000
v -320.500000 25.199993 -84.000000
v -314.000000 25.199993 -84.000000
v -320.500000 25.199993 -95.000000
v -314.000000 25.199993 -95.000000
v -320.500000 0.199993 -95.000000
v -314.000000 0.199993 -95.000000
vn -0.0000 -0.0000 1.0000
vn -0.0000 1.0000 -0.0000
vn -0.0000 -0.0000 -1.0000
vt 0.138064 0.339940
vt 0.369547 0.339940
vt 0.369547 0.997912
vt 0.138064 0.997912
vt 0.652484 0.006856
vt 0.833804 0.006856
vt 0.833804 0.256856
vt 0.652484 0.256856
s 1
usemtl LMProjects.010
f 1/1/1 2/2/1 4/3/1 3/4/1
f 3/5/2 4/6/2 6/7/2 5/8/2
f 5/3/3 6/4/3 8/1/3 7/2/3
