# Blender 4.1.1
# www.blender.org
mtllib city_edificio_gemelo6.mtl
o pasted__pCube27
v -349.000000 6.699993 -82.000000
v -332.000000 6.699993 -82.000000
v -349.000000 28.199993 -82.000000
v -332.000000 28.199993 -82.000000
v -349.000000 28.199993 -97.000000
v -332.000000 28.199993 -97.000000
v -349.000000 6.699993 -97.000000
v -332.000000 6.699993 -97.000000
v -348.765472 28.199993 -82.263870
v -332.234528 28.199993 -82.263870
v -332.234528 28.199993 -96.736130
v -348.765472 28.199993 -96.736130
v -348.765472 27.970745 -82.263870
v -332.234528 27.970745 -82.263870
v -332.234528 27.970745 -96.736130
v -348.765472 27.970745 -96.736130
vn -0.0000 -0.0000 1.0000
vn -0.0000 1.0000 -0.0000
vn -0.0000 -0.0000 -1.0000
vn 1.0000 -0.0000 -0.0000
vn -1.0000 -0.0000 -0.0000
vt 0.376572 0.469456
vt 0.624026 0.469456
vt 0.624026 0.997933
vt 0.376572 0.997933
vt 0.626776 0.000973
vt 0.939547 0.000973
vt 0.939547 0.269645
vt 0.626776 0.269645
vt 0.623828 0.439659
vt 0.940330 0.439659
vt 0.940330 0.999210
vt 0.623828 0.999210
vt 0.623828 0.439659
vt 0.940330 0.439659
vt 0.940330 0.999210
vt 0.623828 0.999210
vt 0.371630 0.332101
vt 0.371630 0.074009
vt 0.355576 0.074009
vt 0.355576 0.332101
vt 0.355062 0.332101
vt 0.355062 0.074009
vt 0.340832 0.074009
vt 0.340832 0.332101
s 1
usemtl LMProjects.005
f 1/1/1 2/2/1 4/3/1 3/4/1
f 13/5/2 14/6/2 15/7/2 16/8/2
f 5/4/3 6/3/3 8/2/3 7/1/3
f 2/9/4 8/10/4 6/11/4 4/12/4
f 7/13/5 1/14/5 3/15/5 5/16/5
f 3/17/2 4/18/2 10/19/2 9/20/2
f 4/17/2 6/18/2 11/19/2 10/20/2
f 6/17/2 5/18/2 12/19/2 11/20/2
f 5/17/2 3/18/2 9/19/2 12/20/2
f 9/21/3 10/22/3 14/23/3 13/24/3
f 10/21/5 11/22/5 15/23/5 14/24/5
f 11/21/1 12/22/1 16/23/1 15/24/1
f 12/21/4 9/22/4 13/23/4 16/24/4
