# Blender 4.1.1
# www.blender.org
mtllib city_edificio_gemelo7.mtl
o LMProjects2_pasted__group65_pasted__pCube40
v -340.468903 24.243971 -81.872780
v -332.502960 24.243971 -81.872780
v -340.468903 26.379671 -81.872780
v -332.502960 26.379671 -81.872780
v -340.468903 15.676744 -81.872780
v -332.502960 15.676744 -81.872780
v -340.468903 17.812445 -81.872780
v -332.502960 17.812445 -81.872780
v -348.532898 15.676744 -81.872780
v -341.072815 15.676744 -81.872780
v -348.532898 17.812445 -81.872780
v -341.072815 17.812445 -81.872780
v -348.532898 7.952055 -81.872780
v -341.072815 7.952055 -81.872780
v -348.532898 10.087754 -81.872780
v -341.072815 10.087754 -81.872780
v -349.195709 7.952055 -85.306953
v -349.195709 7.952055 -83.992622
v -349.195709 10.087753 -85.306953
v -349.195709 10.087753 -83.992622
v -349.195709 7.952055 -89.936607
v -349.195709 7.952055 -88.622284
v -349.195709 10.087753 -89.936607
v -349.195709 10.087753 -88.622284
v -349.195709 7.952054 -94.604607
v -349.195709 7.952054 -93.290283
v -349.195709 10.087753 -94.604607
v -349.195709 10.087753 -93.290283
v -349.195709 15.676744 -94.604607
v -349.195709 15.676744 -93.290283
v -349.195709 17.812443 -94.604607
v -349.195709 17.812443 -93.290283
v -349.195709 24.243969 -94.604607
v -349.195709 24.243969 -93.290283
v -349.195709 26.379669 -94.604607
v -349.195709 26.379669 -93.290283
v -349.195709 24.243969 -89.936607
v -349.195709 24.243969 -88.622284
v -349.195709 26.379669 -89.936607
v -349.195709 26.379669 -88.622284
v -296.842865 7.952054 -94.604607
v -296.842865 7.952054 -93.290283
v -296.842865 10.087753 -94.604607
v -296.842865 10.087753 -93.290283
v -296.842865 7.952055 -89.936607
v -296.842865 7.952055 -88.622284
v -296.842865 10.087753 -89.936607
v -296.842865 10.087753 -88.622284
v -296.842865 7.952055 -85.306953
v -296.842865 7.952055 -83.992622
v -296.842865 10.087753 -85.306953
v -296.842865 10.087753 -83.992622
v -296.842865 15.676744 -85.306953
v -296.842865 15.676744 -83.992622
v -296.842865 17.812445 -85.306953
v -296.842865 17.812445 -83.992622
v -296.842865 15.676744 -94.604607
v -296.842865 15.676744 -93.290283
v -296.842865 17.812443 -94.604607
v -296.842865 17.812443 -93.290283
v -296.842865 24.243971 -85.306953
v -296.842865 24.243971 -83.992622
v -296.842865 26.379671 -85.306953
v -296.842865 26.379671 -83.992622
v -296.842865 24.243969 -89.936607
v -296.842865 24.243969 -88.622284
v -296.842865 26.379669 -89.936607
v -296.842865 26.379669 -88.622284
v -305.417023 24.243971 -81.872780
v -297.451080 24.243971 -81.872780
v -305.417023 26.379671 -81.872780
v -297.451080 26.379671 -81.872780
v -313.481018 24.243971 -81.872780
v -306.020935 24.243971 -81.872780
v -313.481018 26.379671 -81.872780
v -306.020935 26.379671 -81.872780
v -313.481018 7.952055 -81.872780
v -306.020935 7.952055 -81.872780
v -313.481018 10.087754 -81.872780
v -306.020935 10.087754 -81.872780
vn -0.0000 -0.0000 1.0000
vn -1.0000 -0.0000 -0.0000
vn 1.0000 -0.0000 -0.0000
vt 0.946997 0.337054
vt 0.946997 0.440830
vt 0.998046 0.440830
vt 0.998046 0.337054
vt 0.946997 0.441351
vt 0.946997 0.544987
vt 0.998046 0.544987
vt 0.998046 0.441351
vt 0.946997 0.546950
vt 0.946997 0.650282
vt 0.998046 0.650282
vt 0.998046 0.546950
vt 0.946997 0.441268
vt 0.946997 0.544601
vt 0.998046 0.544601
vt 0.998046 0.441268
vt 0.987275 0.790552
vt 0.951258 0.790552
vt 0.951258 0.859447
vt 0.987275 0.859447
vt 0.987275 0.651833
vt 0.951258 0.651833
vt 0.951258 0.720727
vt 0.987275 0.720727
vt 0.987275 0.721377
vt 0.951258 0.721377
vt 0.951258 0.790094
vt 0.987275 0.790094
vt 0.987275 0.790709
vt 0.951258 0.790709
vt 0.951258 0.859604
vt 0.987275 0.859604
vt 0.987275 0.721233
vt 0.951258 0.721233
vt 0.951258 0.790128
vt 0.987275 0.790128
vt 0.987275 0.721855
vt 0.987275 0.790749
vt 0.951258 0.790749
vt 0.951258 0.721855
vt 0.987275 0.790699
vt 0.987275 0.859593
vt 0.951258 0.859593
vt 0.951258 0.790699
vt 0.946997 0.336989
vt 0.946997 0.440216
vt 0.998046 0.440216
vt 0.998046 0.336989
vt 0.946997 0.546920
vt 0.946997 0.650252
vt 0.998046 0.650252
vt 0.998046 0.546920
vt 0.946997 0.441357
vt 0.946997 0.544689
vt 0.998046 0.544689
vt 0.998046 0.441357
s 1
usemtl LMProjects.006
f 1/1/1 2/2/1 4/3/1 3/4/1
f 5/5/1 6/6/1 8/7/1 7/8/1
f 9/9/1 10/10/1 12/11/1 11/12/1
f 13/13/1 14/14/1 16/15/1 15/16/1
f 17/17/2 18/18/2 20/19/2 19/20/2
f 21/21/2 22/22/2 24/23/2 23/24/2
f 25/25/2 26/26/2 28/27/2 27/28/2
f 29/21/2 30/22/2 32/23/2 31/24/2
f 33/29/2 34/30/2 36/31/2 35/32/2
f 37/33/2 38/34/2 40/35/2 39/36/2
f 41/25/3 43/28/3 44/27/3 42/26/3
f 45/21/3 47/24/3 48/23/3 46/22/3
f 49/17/3 51/20/3 52/19/3 50/18/3
f 53/37/3 55/38/3 56/39/3 54/40/3
f 57/21/3 59/24/3 60/23/3 58/22/3
f 61/41/3 63/42/3 64/43/3 62/44/3
f 65/33/3 67/36/3 68/35/3 66/34/3
f 69/45/1 70/46/1 72/47/1 71/48/1
f 73/49/1 74/50/1 76/51/1 75/52/1
f 77/53/1 78/54/1 80/55/1 79/56/1
