# Blender 4.1.1
# www.blender.org
mtllib city_lavanderia4.mtl
o pasted__pCylinder9
v -124.135139 7.556048 -87.679085
v -124.604012 8.143991 -87.679085
v -125.281540 8.470274 -87.679085
v -126.033546 8.470274 -87.679085
v -126.711082 8.143991 -87.679085
v -127.179955 7.556049 -87.679085
v -127.347290 6.822897 -87.679085
v -127.179955 6.089746 -87.679085
v -126.711082 5.501804 -87.679085
v -126.033546 5.175521 -87.679085
v -125.281548 5.175521 -87.679085
v -124.604012 5.501803 -87.679085
v -124.135139 6.089746 -87.679085
v -123.967804 6.822897 -87.679085
v -124.135139 7.556048 -87.432442
v -124.604012 8.143991 -87.432442
v -125.281540 8.470274 -87.432442
v -126.033546 8.470274 -87.432442
v -126.711082 8.143991 -87.432442
v -127.179955 7.556049 -87.432442
v -127.347290 6.822897 -87.432442
v -127.179955 6.089746 -87.432442
v -126.711082 5.501804 -87.432442
v -126.033546 5.175521 -87.432442
v -125.281548 5.175521 -87.432442
v -124.604012 5.501803 -87.432442
v -124.135139 6.089746 -87.432442
v -123.967804 6.822897 -87.432442
vn 0.9010 0.4339 -0.0000
vn 0.6235 0.7818 -0.0000
vn 0.2225 0.9749 -0.0000
vn -0.2225 0.9749 -0.0000
vn -0.6235 0.7818 -0.0000
vn -0.7818 0.6235 -0.0000
vn 0.7818 -0.6235 -0.0000
vn 0.9010 -0.4339 -0.0000
vn 1.0000 -0.0000 -0.0000
vn -0.0000 -0.0000 -1.0000
vn -0.0000 -0.0000 1.0000
vt 0.446968 0.794338
vt 0.584024 0.794338
vt 0.446968 0.816106
vt 0.584024 0.816106
vt 0.469068 0.860469
vt 0.470411 0.848929
vt 0.465307 0.869724
vt 0.469068 0.837389
vt 0.465307 0.828135
vt 0.459872 0.822999
vt 0.453839 0.822999
vt 0.448404 0.828135
vt 0.444642 0.837389
vt 0.443300 0.848929
vt 0.444642 0.860469
vt 0.448404 0.869724
vt 0.453839 0.874859
vt 0.459872 0.874859
vt 0.581810 0.694409
vt 0.565936 0.733464
vt 0.587475 0.645707
vt 0.542997 0.755139
vt 0.517537 0.755139
vt 0.494599 0.733464
vt 0.478725 0.694409
vt 0.473059 0.645707
vt 0.478725 0.597005
vt 0.494599 0.557949
vt 0.517537 0.536275
vt 0.542997 0.536275
vt 0.565936 0.557949
vt 0.581810 0.597005
s 1
usemtl Laundrymat.004
f 1/1/1 2/2/2 15/3/1
f 15/3/1 2/2/2 16/4/2
f 2/1/2 3/2/3 16/3/2
f 16/3/2 3/2/3 17/4/3
f 3/1/3 4/2/4 17/3/3
f 17/3/3 4/2/4 18/4/4
f 4/1/4 5/2/5 18/3/4
f 18/3/4 5/2/5 19/4/5
f 5/1/5 6/2/6 19/3/5
f 19/3/5 6/2/6 20/4/6
f 12/1/7 13/2/8 26/3/7
f 26/3/7 13/2/8 27/4/8
f 13/1/8 14/2/9 27/3/8
f 27/3/8 14/2/9 28/4/9
f 14/1/9 1/2/1 28/3/9
f 28/3/9 1/2/1 15/4/1
f 1/5/10 14/6/10 2/7/10
f 14/6/10 13/8/10 2/7/10
f 13/8/10 12/9/10 2/7/10
f 12/9/10 11/10/10 2/7/10
f 11/10/10 10/11/10 2/7/10
f 10/11/10 9/12/10 2/7/10
f 9/12/10 8/13/10 2/7/10
f 8/13/10 7/14/10 2/7/10
f 7/14/10 6/15/10 2/7/10
f 6/15/10 5/16/10 2/7/10
f 5/16/10 4/17/10 2/7/10
f 4/17/10 3/18/10 2/7/10
f 15/19/11 16/20/11 28/21/11
f 16/20/11 17/22/11 28/21/11
f 17/22/11 18/23/11 28/21/11
f 18/23/11 19/24/11 28/21/11
f 19/24/11 20/25/11 28/21/11
f 20/25/11 21/26/11 28/21/11
f 21/26/11 22/27/11 28/21/11
f 22/27/11 23/28/11 28/21/11
f 23/28/11 24/29/11 28/21/11
f 24/29/11 25/30/11 28/21/11
f 25/30/11 26/31/11 28/21/11
f 26/31/11 27/32/11 28/21/11
