# Blender 4.1.1
# www.blender.org
mtllib city_factory_cerca40.mtl
o pasted__polySurface6.002
v -9.000000 16.000000 -129.005356
v -24.461592 16.000000 -129.005356
v -24.461592 16.000000 -121.994644
v -9.000000 16.000000 -121.994644
v -9.000000 17.962082 -125.500000
v -24.461592 17.962082 -125.500000
vn -0.0000 0.8726 -0.4884
vn -0.0000 0.8726 0.4884
vt 0.002497 0.618816
vt 0.002497 0.255623
vt 0.092299 0.255623
vt 0.092299 0.618816
vt 0.177651 0.255623
vt 0.177651 0.618816
vt 0.092117 0.618816
vt 0.092117 0.255623
s 1
usemtl FishFactory.049
f 1/1/1 2/2/1 6/3/1 5/4/1
f 3/5/2 4/6/2 5/7/2 6/8/2
