# Blender 4.1.1
# www.blender.org
mtllib city_factory_cerca11.mtl
o pasted__pCube20.002
v -34.310658 0.200001 -82.681519
v -32.220966 0.200001 -82.681519
v -34.310658 3.866863 -82.681519
v -32.220966 3.866863 -82.681519
v -34.310658 3.866863 -84.752792
v -32.220966 3.866863 -84.752792
v -32.220966 0.200000 -84.752792
vn -0.0000 -0.0000 1.0000
vn -0.0000 1.0000 -0.0000
vn 1.0000 -0.0000 -0.0000
vt 0.487450 0.000780
vt 0.422708 0.000780
vt 0.422708 0.137247
vt 0.487450 0.137247
vt 0.487451 0.070602
vt 0.422719 0.070602
vt 0.422719 0.137200
vt 0.487451 0.137200
s 1
usemtl FishFactory.018
f 1/1/1 2/2/1 4/3/1 3/4/1
f 3/5/2 4/6/2 6/7/2 5/8/2
f 2/1/3 7/2/3 6/3/3 4/4/3
