# Blender 4.1.1
# www.blender.org
mtllib city_factory_cerca_ventana1.mtl
o pasted__pCube31.002
v -10.896700 9.610473 -81.377983
v -9.505493 9.610473 -81.377983
v -10.896700 12.512012 -81.377983
v -9.505493 12.512012 -81.377983
vn -0.0000 -0.0000 1.0000
vt 0.633071 0.662454
vt 0.587828 0.662454
vt 0.587828 0.786208
vt 0.633071 0.786208
s 1
usemtl FishFactory.001
f 1/1/1 2/2/1 4/3/1 3/4/1
o pasted__pCube30
v -14.230014 9.610473 -81.377983
v -12.838807 9.610473 -81.377983
v -14.230014 12.512012 -81.377983
v -12.838807 12.512012 -81.377983
vn -0.0000 -0.0000 1.0000
vt 0.584651 0.533827
vt 0.538813 0.533827
vt 0.538813 0.657581
vt 0.584651 0.657581
s 1
usemtl FishFactory.002
f 5/5/2 6/6/2 8/7/2 7/8/2
o pasted__pCube29
v -17.556141 9.610473 -81.377983
v -16.164936 9.610473 -81.377983
v -17.556141 12.512012 -81.377983
v -16.164936 12.512012 -81.377983
vn -0.0000 -0.0000 1.0000
vt 0.538813 0.662454
vt 0.584056 0.662454
vt 0.584056 0.786208
vt 0.538813 0.786208
s 1
usemtl FishFactory.003
f 9/9/3 10/10/3 12/11/3 11/12/3
o pasted__pCube28.002
v -20.954380 9.610473 -81.377983
v -19.563175 9.610473 -81.377983
v -20.954380 12.512012 -81.377983
v -19.563175 12.512012 -81.377983
vn -0.0000 -0.0000 1.0000
vt 0.538012 0.662454
vt 0.495442 0.662454
vt 0.495442 0.786208
vt 0.538012 0.786208
s 1
usemtl FishFactory.004
f 13/13/4 14/14/4 16/15/4 15/16/4
o pasted__pCube27.002
v -24.453995 9.610472 -81.377983
v -23.062790 9.610472 -81.377983
v -24.453995 12.512011 -81.377983
v -23.062790 12.512011 -81.377983
vn -0.0000 -0.0000 1.0000
vt 0.632774 0.534124
vt 0.588720 0.534124
vt 0.588720 0.657878
vt 0.632774 0.657878
s 1
usemtl FishFactory1GLOW
f 17/17/5 18/18/5 20/19/5 19/20/5
