# Blender 4.1.1
# www.blender.org
mtllib city_factory_cerca15.mtl
o pasted__pCube1.002
v -61.000000 0.200001 -84.500000
v -44.000004 0.200001 -84.500000
v -61.000000 8.500000 -84.500000
v -44.000004 8.500000 -84.500000
v -61.000000 8.499999 -97.500000
v -44.000004 8.500000 -97.500000
v -61.000000 0.200000 -97.500000
v -44.000004 0.200000 -97.500000
v -59.016670 0.200001 -84.500000
v -45.983337 0.200001 -84.500000
v -45.983337 6.000001 -84.500000
v -59.016670 6.000000 -84.500000
v -59.016670 0.200001 -84.900482
v -45.983337 0.200001 -84.900482
v -45.983337 6.000001 -84.900490
v -59.016670 6.000000 -84.900490
v -61.000000 9.355133 -84.500000
v -44.000004 9.355133 -84.500000
v -44.000004 9.355133 -97.500000
v -61.000000 9.355132 -97.500000
v -60.575005 9.355133 -84.969215
v -44.425003 9.355133 -84.969215
v -44.425003 9.355133 -97.030792
v -60.575005 9.355132 -97.030792
v -60.575005 8.971216 -84.969215
v -44.425003 8.971216 -84.969215
v -44.425003 8.971216 -97.030792
v -60.575005 8.971214 -97.030792
vn -0.0000 -0.0000 1.0000
vn -0.0000 1.0000 -0.0000
vn -0.0000 -0.0000 -1.0000
vn -1.0000 -0.0000 -0.0000
vn -0.0000 -1.0000 -0.0000
vn 1.0000 -0.0000 -0.0000
vt 0.329002 0.788886
vt 0.633312 0.788886
vt 0.633312 1.000000
vt 0.329002 1.000000
vt 0.000556 0.790048
vt 0.326082 0.790048
vt 0.326082 0.996564
vt 0.000556 0.996564
vt 0.595134 0.255808
vt 0.998763 0.255808
vt 0.998763 0.001595
vt 0.595134 0.001595
vt 0.595134 0.001595
vt 0.998763 0.001595
vt 0.951673 0.176949
vt 0.951673 0.001595
vt 0.642224 0.176949
vt 0.642224 0.001595
vt 0.350583 0.000816
vt 0.350583 0.215942
vt 0.345030 0.215942
vt 0.345030 0.000816
vt 0.041104 0.217350
vt 0.345063 0.217350
vt 0.345063 0.222903
vt 0.041104 0.222903
vt 0.039733 0.000816
vt 0.039733 0.215942
vt 0.034180 0.215942
vt 0.034180 0.000816
vt 0.595445 0.258082
vt 0.996049 0.258082
vt 0.996049 0.276109
vt 0.595445 0.276109
vt 0.595445 0.258082
vt 0.996049 0.258082
vt 0.996049 0.276109
vt 0.595445 0.276109
vt 0.614419 0.258082
vt 0.977074 0.258082
vt 0.977074 0.276109
vt 0.614419 0.276109
vt 0.179367 0.617841
vt 0.179367 0.425597
vt 0.187701 0.425597
vt 0.187701 0.617840
vt 0.179124 0.423134
vt 0.179124 0.258223
vt 0.188008 0.258223
vt 0.188008 0.423135
s 1
usemtl FishFactory.022
f 13/1/1 14/2/1 15/3/1 16/4/1
f 25/5/2 26/6/2 27/7/2 28/8/2
f 5/9/3 6/10/3 8/11/3 7/12/3
f 7/13/4 1/14/4 3/10/4 5/9/4
f 2/14/1 4/10/1 11/15/1 10/16/1
f 4/10/1 3/9/1 12/17/1 11/15/1
f 3/9/1 1/13/1 9/18/1 12/17/1
f 10/19/4 11/20/4 15/21/4 14/22/4
f 11/23/5 12/24/5 16/25/5 15/26/5
f 12/27/6 9/28/6 13/29/6 16/30/6
f 3/31/1 4/32/1 18/33/1 17/34/1
f 6/35/3 5/36/3 20/37/3 19/38/3
f 5/39/4 3/40/4 17/41/4 20/42/4
f 17/43/2 18/44/2 22/45/2 21/46/2
f 18/43/2 19/44/2 23/45/2 22/46/2
f 19/43/2 20/44/2 24/45/2 23/46/2
f 20/43/2 17/44/2 21/45/2 24/46/2
f 21/47/3 22/48/3 26/49/3 25/50/3
f 22/47/4 23/48/4 27/49/4 26/50/4
f 23/47/1 24/48/1 28/49/1 27/50/1
f 24/47/6 21/48/6 25/49/6 28/50/6
