# Blender 4.1.1
# www.blender.org
mtllib city_factory_cerca.mtl
o pasted__pCube2
v -8.000000 0.200001 -81.500000
v -8.000000 12.500000 -81.500000
v -26.000000 12.500000 -97.500000
v -8.000000 12.500000 -97.500000
v -26.000000 0.200000 -97.500000
v -8.000000 0.200000 -97.500000
v -24.408899 0.200001 -81.500000
v -9.591101 0.200001 -81.500000
v -9.591101 6.748700 -81.500000
v -24.408899 6.748700 -81.500000
v -24.408899 0.200001 -82.125427
v -9.591101 0.200001 -82.125427
v -9.591101 6.748700 -82.125427
v -24.408899 6.748700 -82.125427
v -26.000000 7.943562 -97.500000
v -8.000000 7.943562 -97.500000
v -8.000000 7.943563 -81.500000
vn -0.0000 -0.0000 1.0000
vn -0.0000 -0.0000 -1.0000
vn 1.0000 -0.0000 -0.0000
vn -1.0000 -0.0000 -0.0000
vn -0.0000 -1.0000 -0.0000
vt 0.039714 -0.000040
vt 0.345751 -0.000040
vt 0.345751 0.217272
vt 0.039714 0.217272
vt 0.594784 0.257233
vt 1.000000 0.257375
vt 1.000000 0.000000
vt 0.594784 0.000000
vt 0.346101 0.217272
vt 0.346101 -0.000040
vt 0.350874 -0.000040
vt 0.350874 0.217272
vt 0.336670 0.222053
vt 0.049365 0.222053
vt 0.049365 0.217279
vt 0.336670 0.217279
vt 0.035160 0.217272
vt 0.035160 -0.000040
vt 0.039934 -0.000040
vt 0.039934 0.217272
vt 0.594784 0.438123
vt 1.000000 0.438123
vt 1.000000 0.337412
vt 0.594784 0.337412
s 1
usemtl FishFactory
f 11/1/1 12/2/1 13/3/1 14/4/1
f 15/5/2 16/6/2 6/7/2 5/8/2
f 1/8/3 6/7/3 16/6/3 17/5/3
f 8/9/4 9/10/4 13/11/4 12/12/4
f 9/13/5 10/14/5 14/15/5 13/16/5
f 10/17/3 7/18/3 11/19/3 14/20/3
f 3/21/2 4/22/2 16/6/2 15/5/2
f 17/5/3 16/6/3 4/23/3 2/24/3
