# Blender 4.1.1
# www.blender.org
mtllib city_factory_cerca13.mtl
o pasted__polySurface5
v -44.000000 12.499999 -97.500000
v -44.000000 12.500001 -82.038406
v -26.000000 12.500001 -82.038406
v -26.000000 12.499999 -97.500000
v -38.039406 14.499999 -97.500000
v -38.039406 14.500001 -82.038406
v -31.960594 14.500001 -82.038406
v -31.960594 14.499999 -97.500000
v -38.039406 15.999999 -97.500000
v -38.039406 16.000000 -82.038406
v -31.960594 16.000000 -82.038406
v -31.960594 15.999999 -97.500000
vn -0.3181 0.9481 -0.0000
vn -0.0000 -0.0000 1.0000
vn 0.3181 0.9481 -0.0000
vn -0.0000 -0.0000 -1.0000
vn -1.0000 -0.0000 -0.0000
vn 1.0000 -0.0000 -0.0000
vt 0.634438 0.810737
vt 0.999385 0.810737
vt 0.999385 0.664750
vt 0.634438 0.664750
vt 0.888889 0.000000
vt 0.888889 1.000000
vt 0.634438 0.518845
vt 0.999385 0.518845
vt 0.999385 0.664832
vt 0.634438 0.664832
vt 0.997981 0.438123
vt 0.594784 0.438123
vt 0.728301 0.504654
vt 0.864465 0.504654
vt 0.598228 0.410083
vt 0.994459 0.410083
vt 0.994459 0.438067
vt 0.598228 0.438067
vt 0.304731 0.493750
vt 0.457662 0.493750
vt 0.457662 0.540014
vt 0.304731 0.540014
s 1
usemtl FishFactory.020
f 1/1/1 2/2/1 6/3/1 5/4/1
f 2/5/2 3/6/2 7/6/2 6/5/2
f 3/7/3 4/8/3 8/9/3 7/10/3
f 4/11/4 1/12/4 5/13/4 8/14/4
f 5/15/5 6/16/5 10/17/5 9/18/5
f 7/15/6 8/16/6 12/17/6 11/18/6
f 8/19/4 5/20/4 9/21/4 12/22/4
