# Blender 4.1.1
# www.blender.org
mtllib city_factory_cerca38.mtl
o pasted__polySurface5.001
v -8.999999 12.500000 -134.500000
v -24.461592 12.500000 -134.500000
v -24.461592 12.500000 -116.500000
v -9.000000 12.500000 -116.500000
v -9.000000 14.500000 -128.539398
v -24.461592 14.500000 -128.539398
v -24.461592 14.500000 -122.460594
v -9.000000 14.500000 -122.460594
v -9.000000 16.000000 -128.539398
v -24.461592 16.000000 -128.539398
v -24.461592 16.000000 -122.460594
v -9.000000 16.000000 -122.460594
vn -0.0000 0.9481 -0.3181
vn -1.0000 -0.0000 -0.0000
vn -0.0000 0.9481 0.3181
vn 1.0000 -0.0000 -0.0000
vn -0.0000 -0.0000 -1.0000
vn -0.0000 -0.0000 1.0000
vt 0.634438 0.810737
vt 0.999385 0.810737
vt 0.999385 0.664750
vt 0.634438 0.664750
vt 0.888889 0.000000
vt 0.888889 1.000000
vt 0.634438 0.518845
vt 0.999385 0.518845
vt 0.999385 0.664832
vt 0.634438 0.664832
vt 0.997981 0.438123
vt 0.594784 0.438123
vt 0.728301 0.504654
vt 0.864465 0.504654
vt 0.598228 0.410083
vt 0.994459 0.410083
vt 0.994459 0.438067
vt 0.598228 0.438067
vt 0.304731 0.493750
vt 0.457662 0.493750
vt 0.457662 0.540014
vt 0.304731 0.540014
s 1
usemtl FishFactory.047
f 1/1/1 2/2/1 6/3/1 5/4/1
f 2/5/2 3/6/2 7/6/2 6/5/2
f 3/7/3 4/8/3 8/9/3 7/10/3
f 4/11/4 1/12/4 5/13/4 8/14/4
f 5/15/5 6/16/5 10/17/5 9/18/5
f 7/15/6 8/16/6 12/17/6 11/18/6
f 8/19/4 5/20/4 9/21/4 12/22/4
