# Blender 4.1.1
# www.blender.org
mtllib city_factory_cerca7.mtl
o pasted__polySurface24
v -44.000000 0.200001 -81.500000
v -42.500000 0.200001 -81.500000
v -42.500000 6.000000 -81.500000
v -37.125282 6.000000 -81.500000
v -37.125282 0.200001 -81.500000
v -34.360588 0.200001 -81.500000
v -34.360588 6.000000 -81.500000
v -44.000000 7.943564 -81.500000
v -34.368027 7.943564 -81.500000
vn -0.0000 -0.0000 1.0000
vt 0.597843 0.000497
vt 0.637667 0.000497
vt 0.637667 0.192183
vt 0.597843 0.256416
vt 0.780362 0.192183
vt 0.853565 0.256416
vt 0.780362 0.000497
vt 0.853762 0.000497
vt 0.853762 0.192183
s 1
usemtl FishFactory.015
f 1/1/1 2/2/1 3/3/1 8/4/1
f 8/4/1 3/3/1 4/5/1 9/6/1
f 9/6/1 4/5/1 5/7/1 6/8/1 7/9/1
