# Blender 4.1.1
# www.blender.org
mtllib city_factory_cerca36.mtl
o pasted__polySurface21.001
v -25.000000 14.522188 -116.500000
v -25.000000 14.522188 -121.591858
v -25.000000 17.076893 -121.591858
v -25.000000 17.076893 -129.408142
v -25.000000 14.522188 -129.408142
v -25.000000 14.522188 -134.500000
v -25.000000 12.500000 -134.500000
v -25.000000 12.500000 -116.500000
v -25.000000 9.042347 -134.500000
v -25.000000 9.042347 -116.500000
vn -1.0000 -0.0000 -0.0000
vt 0.192468 0.427713
vt 0.595241 0.427713
vt 0.192468 0.486179
vt 0.305281 0.486179
vt 0.595241 0.486179
vt 0.481085 0.486179
vt 0.481085 0.560040
vt 0.305281 0.560040
vt 0.192468 0.285642
vt 0.595241 0.285642
s 1
usemtl FishFactory.045
f 7/1/1 8/2/1 6/3/1
f 6/3/1 8/2/1 5/4/1
f 1/5/1 2/6/1 8/2/1
f 8/2/1 2/6/1 5/4/1
f 2/6/1 3/7/1 5/4/1
f 3/7/1 4/8/1 5/4/1
f 9/9/1 10/10/1 7/1/1
f 7/1/1 10/10/1 8/2/1
