# Blender 4.1.1
# www.blender.org
mtllib city_factory_cerca6.mtl
o pasted__polySurface22
v -34.353142 7.943564 -81.198097
v -34.368027 7.943564 -81.500000
v -26.791489 7.943564 -81.500000
v -26.791489 7.943564 -81.198097
v -34.353142 5.999999 -81.198097
v -34.368027 6.000001 -81.500000
v -26.791489 6.000001 -81.500000
v -26.791489 5.999999 -81.198097
vn -0.9988 -0.0000 0.0493
vn 1.0000 -0.0000 -0.0000
vn -0.0000 -0.0000 1.0000
vt 0.518651 0.243302
vt 0.527715 0.243302
vt 0.527715 0.267531
vt 0.518651 0.267531
vt 0.567345 0.267449
vt 0.417282 0.267449
vt 0.417282 0.230323
vt 0.567345 0.230323
s 1
usemtl FishFactory.014
f 1/1/1 2/2/1 6/3/1 5/4/1
f 3/1/2 4/2/2 8/3/2 7/4/2
f 4/5/3 1/6/3 5/7/3 8/8/3
