# Blender 4.1.1
# www.blender.org
mtllib city_factory_cerca24.mtl
o pasted__pCube12.001
v -20.711082 14.646054 -148.196991
v -20.711082 14.646054 -138.027893
v -20.711082 15.582744 -148.196991
v -20.711082 15.582744 -138.027893
v -20.412487 15.582744 -148.196991
v -20.412487 15.582744 -138.027893
v -20.412487 14.646054 -148.196991
v -20.412487 14.646054 -138.027893
vn -1.0000 -0.0000 -0.0000
vn -0.0000 1.0000 -0.0000
vn 1.0000 -0.0000 -0.0000
vn -0.0000 -0.0000 1.0000
vn -0.0000 -0.0000 -1.0000
vt 0.698907 0.962646
vt 0.956788 0.962646
vt 0.956788 0.975914
vt 0.698907 0.975914
vt 0.872912 0.961159
vt 0.944106 0.961159
vt 0.944106 0.971107
vt 0.872912 0.971107
vt 0.871203 0.975914
vt 0.942324 0.975914
vt 0.942324 0.960555
vt 0.871203 0.960555
vt 0.625000 0.000000
vt 0.875000 0.000000
vt 0.875000 0.250000
vt 0.625000 0.250000
vt 0.125000 0.000000
vt 0.375000 0.000000
vt 0.375000 0.250000
vt 0.125000 0.250000
s 1
usemtl FishFactory.031
f 1/1/1 2/2/1 4/3/1 3/4/1
f 3/5/2 4/6/2 6/7/2 5/8/2
f 5/9/3 6/10/3 8/11/3 7/12/3
f 2/13/4 8/14/4 6/15/4 4/16/4
f 7/17/5 1/18/5 3/19/5 5/20/5
