# Blender 4.1.1
# www.blender.org
mtllib city_factory_cerca4.mtl
o pasted__polySurface6.001
v -20.505358 15.999999 -97.500000
v -20.505358 16.000000 -81.500000
v -13.494644 16.000000 -81.500000
v -13.494644 15.999999 -97.500000
v -17.000004 17.962082 -97.500000
v -17.000004 17.962082 -81.500000
vn -0.4884 0.8726 -0.0000
vn 0.4884 0.8726 -0.0000
vt 0.002497 0.618816
vt 0.002497 0.255623
vt 0.092299 0.255623
vt 0.092299 0.618816
vt 0.177651 0.255623
vt 0.177651 0.618816
vt 0.092117 0.618816
vt 0.092117 0.255623
s 1
usemtl FishFactory.012
f 1/1/1 2/2/1 6/3/1 5/4/1
f 3/5/2 4/6/2 5/7/2 6/8/2
