# Blender 4.1.1
# www.blender.org
mtllib city_factory_cerca2.mtl
o pasted__polySurface23
v -44.000000 7.943564 -81.500000
v -44.000000 9.042348 -81.500000
v -26.000000 9.042348 -81.500000
v -26.000000 7.943564 -81.198097
v -44.000000 7.943564 -81.198097
v -26.000000 9.042348 -81.198097
v -44.000000 9.042348 -81.198097
v -34.372620 7.943564 -81.198097
v -34.363441 9.042348 -81.198097
v -26.785511 7.943565 -81.198097
v -26.797466 9.042348 -81.198097
v -8.000000 7.943564 -81.500000
v -8.000000 9.042348 -81.500000
v -8.000000 9.042348 -81.198097
v -8.000000 7.943564 -81.198097
vn -0.0000 -0.0000 1.0000
vn 1.0000 -0.0000 -0.0000
vn -0.0000 1.0000 -0.0000
vn -1.0000 -0.0000 -0.0000
vt 0.188627 0.265450
vt 0.417215 0.265450
vt 0.417055 0.284454
vt 0.188627 0.284454
vt 0.445076 0.258536
vt 0.445076 0.242029
vt 0.454391 0.242029
vt 0.454391 0.258536
vt 0.188216 0.528207
vt 0.178950 0.426239
vt 0.188216 0.426239
vt 0.485768 0.265977
vt 0.485768 0.283642
vt 0.476337 0.283642
vt 0.476337 0.265977
vt 0.417218 0.284485
vt 0.417161 0.265499
vt 0.567382 0.265499
vt 0.567308 0.284485
vt 0.567350 0.284454
vt 0.567253 0.265450
vt 0.590817 0.265450
vt 0.590817 0.284454
vt 0.178950 0.616704
vt 0.188216 0.608266
vt 0.188216 0.616704
vt 0.179525 0.430612
vt 0.187315 0.430612
vt 0.187315 0.611739
vt 0.179525 0.611740
vt 0.600549 0.275535
vt 0.600549 0.256805
vt 0.996351 0.256805
vt 0.996351 0.275535
s 1
usemtl FishFactory.010
f 5/1/1 8/2/1 9/3/1 7/4/1
f 12/5/2 13/6/2 14/7/2 15/8/2
f 9/9/3 2/10/3 7/11/3
f 2/12/4 1/13/4 5/14/4 7/15/4
f 9/16/1 8/17/1 10/18/1 11/19/1
f 11/20/1 10/21/1 4/22/1 6/23/1
f 3/24/3 11/25/3 6/26/3
f 3/24/3 2/10/3 9/9/3 11/25/3
f 3/27/3 6/28/3 14/29/3 13/30/3
f 6/31/1 4/32/1 15/33/1 14/34/1
