# Blender 4.1.1
# www.blender.org
mtllib city_factory_cerca32.mtl
o pasted__polySurface22.001
v -25.301901 7.943563 -124.853142
v -25.000000 7.943563 -124.868027
v -25.000000 7.943563 -117.291489
v -25.301901 7.943563 -117.291489
v -25.301903 5.999998 -124.853142
v -25.000004 6.000000 -124.868027
v -25.000004 6.000000 -117.291489
v -25.301903 5.999998 -117.291489
vn -0.0493 -0.0000 -0.9988
vn -0.0000 -0.0000 1.0000
vn -1.0000 -0.0000 -0.0000
vt 0.518651 0.243302
vt 0.527715 0.243302
vt 0.527715 0.267531
vt 0.518651 0.267531
vt 0.567345 0.267449
vt 0.417282 0.267449
vt 0.417282 0.230323
vt 0.567345 0.230323
s 1
usemtl FishFactory.041
f 1/1/1 2/2/1 6/3/1 5/4/1
f 3/1/2 4/2/2 8/3/2 7/4/2
f 4/5/3 1/6/3 5/7/3 8/8/3
