# Blender 4.1.1
# www.blender.org
mtllib city_factory_cerca25.mtl
o pasted__pCube9.001
v -20.711082 8.971215 -148.196991
v -20.711082 8.971215 -147.707062
v -20.711082 14.646054 -148.196991
v -20.711082 14.646054 -147.707062
v -20.412487 14.646054 -148.196991
v -20.412487 14.646054 -147.707062
v -20.412487 8.971215 -148.196991
v -20.412487 8.971215 -147.707062
vn -1.0000 -0.0000 -0.0000
vn 1.0000 -0.0000 -0.0000
vn -0.0000 -0.0000 1.0000
vn -0.0000 -0.0000 -1.0000
vt 0.570379 0.001356
vt 0.581513 0.001356
vt 0.581513 0.262503
vt 0.570379 0.262503
vt 0.590529 0.001356
vt 0.570460 0.001356
vt 0.570460 0.262503
vt 0.590529 0.262503
s 1
usemtl FishFactory.032
f 1/1/1 2/2/1 4/3/1 3/4/1
f 5/1/2 6/2/2 8/3/2 7/4/2
f 2/5/3 8/6/3 6/7/3 4/8/3
f 7/6/4 1/5/4 3/8/4 5/7/4
