# Blender 4.1.1
# www.blender.org
mtllib city_factory_cerca16.mtl
o pasted__pCube16
v -45.924133 0.200001 -81.500000
v -44.000000 0.200001 -81.500000
v -45.924133 1.831419 -81.500000
v -44.000000 2.365722 -81.500000
v -45.924133 1.831419 -84.164093
v -44.000000 2.365722 -84.164093
v -45.924133 0.200000 -84.164093
v -44.000000 0.200000 -84.164093
vn -0.0000 -0.0000 1.0000
vn -0.2676 0.9635 -0.0000
vn 1.0000 -0.0000 -0.0000
vn -1.0000 -0.0000 -0.0000
vt 0.294965 0.565741
vt 0.373687 0.565741
vt 0.373687 0.688863
vt 0.294965 0.657507
vt 0.496061 0.489985
vt 0.496061 0.530765
vt 0.609883 0.530765
vt 0.609883 0.489985
vt 0.493465 0.565611
vt 0.375193 0.565623
vt 0.375193 0.658223
vt 0.493465 0.658223
vt 0.375193 0.565611
s 1
usemtl FishFactory.023
f 1/1/1 2/2/1 4/3/1 3/4/1
f 3/5/2 4/6/2 6/7/2 5/8/2
f 2/9/3 8/10/3 6/11/3 4/12/3
f 7/9/4 1/13/4 3/11/4 5/12/4
