# Blender 4.1.1
# www.blender.org
mtllib city_factory_cerca37.mtl
o pasted__polySurface17.001
v -9.000000 12.500000 -116.500000
v -25.000000 12.500000 -116.500000
v -25.000000 12.500000 -98.500000
v -9.000001 12.500000 -98.500000
v -9.000000 14.500000 -110.539406
v -25.000000 14.500000 -110.539406
v -25.000000 14.500000 -104.460594
v -9.000001 14.500000 -104.460594
v -9.000000 16.000000 -110.539406
v -25.000000 16.000000 -110.539406
v -25.000000 16.000000 -104.460594
v -9.000001 16.000000 -104.460594
v -25.000000 16.000000 -110.539406
v -25.000000 14.500000 -110.539406
v -25.000000 14.500000 -104.460594
v -25.000000 16.000000 -104.460594
v -25.000000 9.042348 -116.500000
v -25.000000 9.042348 -98.500000
vn -0.0000 0.9481 -0.3181
vn -1.0000 -0.0000 -0.0000
vn -0.0000 0.9481 0.3181
vn 1.0000 -0.0000 -0.0000
vn -0.0000 -0.0000 -1.0000
vn -0.0000 -0.0000 1.0000
vt 0.634438 0.810737
vt 0.999385 0.810737
vt 0.999385 0.664750
vt 0.634438 0.664750
vt 0.598409 0.394947
vt 0.999412 0.394947
vt 0.865932 0.460669
vt 0.731288 0.460669
vt 0.634438 0.518845
vt 0.999385 0.518845
vt 0.999385 0.664832
vt 0.634438 0.664832
vt 0.999376 0.437510
vt 0.596416 0.437510
vt 0.729854 0.508544
vt 0.865938 0.508544
vt 0.598228 0.410083
vt 0.994459 0.410083
vt 0.994459 0.438067
vt 0.598228 0.438067
vt 0.471338 0.492891
vt 0.306515 0.492891
vt 0.306515 0.540778
vt 0.471338 0.540778
vt 0.598409 0.278301
vt 0.999412 0.278301
s 1
usemtl FishFactory.046
f 1/1/1 2/2/1 6/3/1 5/4/1
f 2/5/2 3/6/2 7/7/2 6/8/2
f 3/9/3 4/10/3 8/11/3 7/12/3
f 4/13/4 1/14/4 5/15/4 8/16/4
f 5/17/5 6/18/5 10/19/5 9/20/5
f 7/17/6 8/18/6 12/19/6 11/20/6
f 8/21/4 5/22/4 9/23/4 12/24/4
f 13/23/2 14/22/2 15/21/2 16/24/2
f 3/6/2 2/5/2 17/25/2 18/26/2
