# Blender 4.1.1
# www.blender.org
mtllib city_factory_cerca21.mtl
o pasted__pCube3
v -44.000000 0.200001 -81.500000
v -44.000000 12.500000 -81.500000
v -44.000000 12.500000 -97.500000
v -26.000000 12.500000 -97.500000
v -44.000000 0.200000 -97.500000
v -26.000000 0.200000 -97.500000
v -34.360584 0.200001 -81.500000
v -26.791489 0.200001 -81.500000
v -26.791489 6.000000 -81.500000
v -34.360584 6.000000 -81.500000
v -34.360584 0.200000 -88.923576
v -26.791489 0.200000 -88.923576
v -26.791489 6.000000 -88.923576
v -34.360584 6.000000 -88.923576
v -44.000000 7.943564 -81.500000
v -44.000000 7.943563 -97.500000
v -26.000000 7.943563 -97.500000
vn -0.0000 -0.0000 1.0000
vn -0.0000 -0.0000 -1.0000
vn -1.0000 -0.0000 -0.0000
vn -0.0000 -1.0000 -0.0000
vn 1.0000 -0.0000 -0.0000
vt 0.419179 0.000000
vt 0.591869 0.000000
vt 0.591869 0.229088
vt 0.419179 0.229088
vt 0.594784 0.257233
vt 0.999525 0.260253
vt 0.999525 0.000000
vt 0.594784 0.000000
vt 0.955526 0.000000
vt 0.647059 0.000000
vt 0.647059 0.256721
vt 0.955526 0.256721
vt 0.592054 0.000000
vt 0.592054 0.229351
vt 0.419314 0.229351
vt 0.419314 0.000000
vt -0.353343 0.250000
vt -0.603343 0.250000
vt 0.419314 0.000000
vt 0.419314 0.229351
vt 0.647059 0.341979
vt 0.955526 0.341979
vt 0.594784 0.438123
vt 0.997981 0.438123
s 1
usemtl FishFactory.028
f 11/1/1 12/2/1 13/3/1 14/4/1
f 16/5/2 17/6/2 6/7/2 5/8/2
f 5/9/3 1/10/3 15/11/3 16/12/3
f 8/13/3 9/14/3 13/15/3 12/16/3
f 9/17/4 10/18/4 14/18/4 13/17/4
f 10/14/5 7/13/5 11/19/5 14/20/5
f 16/12/3 15/11/3 2/21/3 3/22/3
f 3/23/2 4/24/2 17/6/2 16/5/2
