# Blender 4.1.1
# www.blender.org
mtllib city_lamppost3.mtl
o polySurface750.015
v 29.035934 9.890378 -78.902367
v 29.133574 9.890378 -78.861916
v 29.231211 9.890378 -78.902367
v 29.271650 9.890378 -79.000000
v 29.231211 9.890378 -79.097641
v 29.133574 9.890378 -79.138084
v 29.035934 9.890378 -79.097641
v 28.995491 9.890378 -79.000000
v 29.035934 9.890378 -78.902367
v 29.133574 9.890378 -78.861916
v 29.231211 9.890378 -78.902367
v 29.271650 9.890378 -79.000000
v 29.231211 9.890378 -79.097641
v 29.133574 9.890378 -79.138084
v 29.035934 9.890378 -79.097641
v 28.995491 9.890378 -79.000000
v 29.133574 10.070449 -79.000000
v 29.271650 0.200000 -79.000000
v 29.231211 0.200000 -78.902367
v 29.133574 0.200000 -78.861916
v 29.035934 0.200000 -78.902367
v 28.995491 0.200000 -79.000000
v 29.035934 0.200000 -79.097641
v 29.133574 0.200000 -79.138084
v 29.231211 0.200000 -79.097641
v 29.093241 11.170850 -76.338043
v 29.076538 11.051305 -76.336670
v 29.190605 11.051305 -76.336670
v 29.173901 11.170850 -76.338043
v 29.133574 11.187548 -76.338600
v 28.964891 11.244644 -76.142311
v 28.895023 11.076539 -76.139290
v 29.372120 11.076539 -76.139290
v 29.302246 11.244644 -76.142311
v 29.133570 11.281459 -76.143555
v 28.961115 11.248281 -75.783272
v 28.889677 11.080172 -75.780258
v 29.377460 11.080172 -75.780258
v 29.306028 11.248281 -75.783272
v 29.133570 11.285090 -75.784523
v 29.024458 11.222915 -75.656960
v 28.979261 11.084427 -75.654953
v 29.287878 11.084427 -75.654953
v 29.242685 11.222915 -75.656960
v 29.133574 11.247451 -75.657791
v 29.133574 11.085470 -75.601814
v 29.099298 9.956104 -78.977966
v 29.085102 9.851645 -78.954765
v 29.182037 9.851645 -78.954765
v 29.167843 9.956104 -78.977966
v 29.133574 9.966558 -78.987572
v 29.085102 10.944032 -77.003441
v 29.182037 10.944032 -77.003441
v 29.167843 11.054428 -77.017723
v 29.133574 11.067331 -77.023643
v 29.099298 11.054428 -77.017723
v 29.085102 10.123208 -78.518524
v 29.182037 10.123208 -78.518524
v 29.167843 10.231874 -78.536095
v 29.133574 10.244063 -78.543381
v 29.099298 10.231874 -78.536095
v 28.964890 11.244644 -76.142311
v 29.133574 11.281459 -76.143555
v 29.302250 11.244644 -76.142311
v 29.372122 11.076539 -76.139290
v 28.895020 11.076539 -76.139290
v 29.085102 10.944032 -77.003441
v 29.182037 10.944032 -77.003441
v 29.167843 11.054428 -77.017723
v 29.133574 11.067331 -77.023643
v 29.099298 11.054428 -77.017723
vn -0.0000 -0.0000 1.0000
vn -0.7071 -0.0000 0.7071
vn 0.7071 -0.0000 0.7071
vn 1.0000 -0.0000 -0.0000
vn 0.7071 -0.0000 -0.7071
vn -0.0000 -0.0000 -1.0000
vn -0.7071 -0.0000 -0.7071
vn -1.0000 -0.0000 -0.0000
vn -0.0000 0.1354 0.9908
vn -0.0000 1.0000 -0.0000
vn -0.7006 0.1354 0.7006
vn 0.7006 0.1354 0.7006
vn 0.9908 0.1354 -0.0000
vn 0.7006 0.1354 -0.7006
vn -0.0000 0.1354 -0.9908
vn -0.7006 0.1354 -0.7006
vn -0.9908 0.1354 -0.0000
vn -0.8766 -0.0229 -0.4808
vn -0.5316 0.7431 -0.4064
vn -0.6764 0.7012 -0.2254
vn -0.9804 0.0009 -0.1972
vn 0.9804 0.0009 -0.1972
vn 0.6764 0.7012 -0.2254
vn 0.5316 0.7431 -0.4064
vn 0.8766 -0.0229 -0.4808
vn -0.0000 0.9746 -0.2241
vn -0.0000 0.9445 -0.3284
vn -0.4785 0.8758 -0.0633
vn -0.9963 0.0237 -0.0820
vn -0.9837 0.0151 0.1789
vn -0.4782 0.8710 0.1126
vn 0.9966 0.0052 -0.0818
vn 0.4785 0.8758 -0.0633
vn 0.4782 0.8710 0.1126
vn 0.9848 0.0010 0.1736
vn -0.0000 0.9992 -0.0412
vn -0.0000 0.9965 0.0832
vn -0.7529 0.0226 0.6577
vn -0.3782 0.7889 0.4844
vn 0.3782 0.7889 0.4844
vn 0.7529 0.0226 0.6577
vn -0.0000 0.9115 0.4113
vn -0.0000 0.0324 0.9995
vn -0.6900 0.7126 -0.1265
vn -0.9996 0.0226 -0.0186
vn 0.9996 0.0227 -0.0186
vn 0.6901 0.7126 -0.1265
vn -0.0000 0.9856 -0.1688
vn 0.6951 0.6479 -0.3115
vn 0.9997 0.0218 -0.0088
vn 1.0000 0.0087 -0.0049
vn 0.7011 0.6220 -0.3485
vn -0.0000 0.9008 -0.4343
vn -0.0000 0.8723 -0.4889
vn -0.6951 0.6479 -0.3115
vn -0.7011 0.6221 -0.3486
vn -0.9997 0.0217 -0.0088
vn -1.0000 0.0087 -0.0049
vn 0.9988 0.0412 -0.0259
vn 0.6788 0.6229 -0.3888
vn -0.0000 0.8482 -0.5296
vn -0.6788 0.6230 -0.3888
vn -0.9988 0.0412 -0.0259
vt 0.880016 1.363730
vt 0.850639 1.363730
vt 0.850639 -0.438148
vt 0.880016 -0.438148
vt 0.909393 1.363730
vt 0.909393 -0.438148
vt 0.938768 1.363730
vt 0.938768 -0.438148
vt 0.969801 1.361478
vt 0.970167 -0.438148
vt 0.994679 1.358526
vt 0.994679 -0.438148
vt 0.791888 1.363730
vt 0.762512 1.363730
vt 0.762512 -0.438148
vt 0.791888 -0.438148
vt 0.821264 1.363730
vt 0.821264 -0.438148
vt 0.880016 1.417968
vt 0.880012 1.426003
vt 0.850638 1.417968
vt 0.909394 1.417968
vt 0.938768 1.417968
vt 0.969853 1.418227
vt 0.994679 1.413448
vt 0.987204 1.422320
vt 0.791888 1.417968
vt 0.762512 1.417968
vt 0.821264 1.417968
vt 0.857688 0.258878
vt 0.867824 0.259582
vt 0.878171 0.271113
vt 0.872322 0.270620
vt 0.912265 0.270620
vt 0.906415 0.271113
vt 0.916763 0.259582
vt 0.926899 0.258878
vt 0.892294 0.271316
vt 0.892294 0.259873
vt 0.833229 0.148862
vt 0.808763 0.147776
vt 0.806892 0.070689
vt 0.831906 0.071772
vt 0.975824 0.147776
vt 0.951358 0.148862
vt 0.952681 0.071772
vt 0.977695 0.070689
vt 0.892294 0.149310
vt 0.892294 0.072221
vt 0.838260 0.025664
vt 0.854086 0.026387
vt 0.930500 0.026387
vt 0.946327 0.025664
vt 0.892294 0.026686
vt 0.892294 0.006569
vt 0.845474 0.094896
vt 0.859186 0.095374
vt 0.864160 0.202145
vt 0.852506 0.201106
vt 0.925401 0.095374
vt 0.939113 0.094896
vt 0.932082 0.201106
vt 0.920427 0.202145
vt 0.892294 0.095571
vt 0.892294 0.202575
vt 0.920427 0.332204
vt 0.932082 0.327227
vt 0.932082 0.855142
vt 0.920427 0.861266
vt 0.892294 0.334265
vt 0.892294 0.863803
vt 0.864160 0.332204
vt 0.864160 0.861266
vt 0.852506 0.327227
vt 0.852506 0.855142
vt 0.932082 1.007146
vt 0.920427 1.015230
vt 0.892294 1.018577
vt 0.864160 1.015230
vt 0.852506 1.007146
s 1
usemtl CityProps.003
f 2/1/1 1/2/2 21/3/2 20/4/1
f 3/5/3 2/1/1 20/4/1 19/6/3
f 4/7/4 3/5/3 19/6/3 18/8/4
f 5/9/5 4/7/4 18/8/4 25/10/5
f 6/11/6 5/9/5 25/10/5 24/12/6
f 7/13/7 6/14/6 24/15/6 23/16/7
f 8/17/8 7/13/7 23/16/7 22/18/8
f 1/2/2 8/17/8 22/18/8 21/3/2
f 10/19/9 17/20/10 9/21/11
f 11/22/12 17/20/10 10/19/9
f 12/23/13 17/20/10 11/22/12
f 13/24/14 17/20/10 12/23/13
f 14/25/15 17/26/10 13/24/14
f 15/27/16 17/20/10 14/28/15
f 16/29/17 17/20/10 15/27/16
f 9/21/11 17/20/10 16/29/17
f 66/30/18 62/31/19 26/32/20 27/33/21
f 28/34/22 29/35/23 64/36/24 65/37/25
f 29/35/23 30/38/26 63/39/27 64/36/24
f 30/38/26 26/32/20 62/31/19 63/39/27
f 31/40/28 32/41/29 37/42/30 36/43/31
f 33/44/32 34/45/33 39/46/34 38/47/35
f 34/45/33 35/48/36 40/49/37 39/46/34
f 35/48/36 31/40/28 36/43/31 40/49/37
f 36/43/31 37/42/30 42/50/38 41/51/39
f 38/47/35 39/46/34 44/52/40 43/53/41
f 39/46/34 40/49/37 45/54/42 44/52/40
f 40/49/37 36/43/31 41/51/39 45/54/42
f 42/50/38 46/55/43 41/51/39
f 44/52/40 46/55/43 43/53/41
f 45/54/42 46/55/43 44/52/40
f 41/51/39 46/55/43 45/54/42
f 27/56/21 26/57/20 71/58/44 67/59/45
f 29/60/23 28/61/22 68/62/46 69/63/47
f 30/64/26 29/60/23 69/63/47 70/65/48
f 26/57/20 30/64/26 70/65/48 71/58/44
f 54/66/49 53/67/50 58/68/51 59/69/52
f 55/70/53 54/66/49 59/69/52 60/71/54
f 56/72/55 55/70/53 60/71/54 61/73/56
f 52/74/57 56/72/55 61/73/56 57/75/58
f 59/69/52 58/68/51 49/76/59 50/77/60
f 60/71/54 59/69/52 50/77/60 51/78/61
f 61/73/56 60/71/54 51/78/61 47/79/62
f 57/75/58 61/73/56 47/79/62 48/80/63
