# Blender 4.1.1
# www.blender.org
mtllib city_cancha_edificio2.mtl
o pCube11.003
v -91.338249 0.199999 -134.046600
v -97.978691 0.199999 -134.046600
v -91.338249 3.999999 -134.046600
v -97.978691 3.999999 -134.046600
v -91.338249 4.000000 -125.953400
v -97.978691 4.000000 -125.953400
v -91.338249 0.200000 -125.953400
v -97.978691 0.200000 -125.953400
vn -0.0000 -0.0000 -1.0000
vn -0.0000 -0.0000 1.0000
vn -1.0000 -0.0000 -0.0000
vn 1.0000 -0.0000 -0.0000
vt 0.006840 0.299294
vt 0.205547 0.299294
vt 0.205547 0.403940
vt 0.006840 0.403940
vt 0.006953 0.524427
vt 0.205299 0.524427
vt 0.205299 0.404861
vt 0.006953 0.404861
vt 0.626911 0.000499
vt 0.430201 0.000499
vt 0.430201 0.104943
vt 0.626911 0.104943
vt 0.646514 0.108906
vt 0.646514 0.305617
vt 0.750958 0.305617
vt 0.750958 0.108906
s 1
usemtl FillerBuildings1.004
f 1/1/1 2/2/1 4/3/1 3/4/1
f 5/5/2 6/6/2 8/7/2 7/8/2
f 2/9/3 8/10/3 6/11/3 4/12/3
f 7/13/4 1/14/4 3/15/4 5/16/4
