# Blender 4.1.1
# www.blender.org
mtllib city_cancha_edificio9.mtl
o polySurface139.003
v -97.978691 11.000000 -125.046600
v -97.978691 11.000000 -116.953400
v -91.338249 11.000000 -116.953400
v -91.338249 11.000000 -125.046600
v -98.243942 11.654797 -125.316376
v -98.243942 11.654797 -116.683624
v -91.073006 11.654797 -116.683624
v -91.073006 11.654797 -125.316376
v -97.748817 11.654797 -124.812798
v -97.748817 11.654797 -117.187202
v -91.568130 11.654797 -117.187202
v -91.568130 11.654797 -124.812798
v -97.748817 12.384701 -124.812798
v -97.748817 12.384701 -117.187202
v -91.568130 12.384701 -117.187202
v -91.568130 12.384701 -124.812798
v -97.936256 12.384701 -125.003441
v -97.936256 12.384701 -116.996559
v -91.380692 12.384701 -116.996559
v -91.380692 12.384701 -125.003441
v -97.936256 12.597178 -125.003441
v -97.936256 12.597178 -116.996559
v -91.380692 12.597178 -116.996559
v -91.380692 12.597178 -125.003441
v -97.608231 12.597178 -124.669823
v -97.608231 12.597178 -117.330185
v -91.708710 12.597178 -117.330185
v -91.708710 12.597178 -124.669823
v -97.608231 12.257254 -124.669823
v -97.608231 12.257254 -117.330185
v -91.708710 12.257254 -117.330185
v -91.708710 12.257254 -124.669823
vn -0.0000 1.0000 -0.0000
vn -0.9268 -0.3754 -0.0000
vn -0.0000 -0.3809 0.9246
vn 0.9268 -0.3754 -0.0000
vn -0.0000 -0.3809 -0.9246
vn -1.0000 -0.0000 -0.0000
vn -0.0000 -0.0000 1.0000
vn 1.0000 -0.0000 -0.0000
vn -0.0000 -0.0000 -1.0000
vt 0.797198 0.030229
vt 0.984225 0.030229
vt 0.984225 0.213692
vt 0.797197 0.213692
vt 0.628283 0.338004
vt 0.429005 0.338004
vt 0.423451 0.358424
vt 0.633837 0.358424
vt 0.628003 0.358424
vt 0.432131 0.358424
vt 0.432131 0.393512
vt 0.628003 0.393512
vt 0.631927 0.393512
vt 0.428207 0.393512
vt 0.428207 0.398248
vt 0.631927 0.398248
vt 0.783091 0.016122
vt 0.999115 0.016122
vt 0.999115 0.227798
vt 0.783091 0.227799
vt 0.628003 0.393512
vt 0.432131 0.393512
s 1
usemtl FillerBuildings1.011
f 29/1/1 30/2/1 31/3/1 32/4/1
f 1/5/2 2/6/2 6/7/2 5/8/2
f 2/6/3 3/5/3 7/8/3 6/7/3
f 3/6/4 4/5/4 8/8/4 7/7/4
f 4/5/5 1/6/5 5/7/5 8/8/5
f 9/9/6 10/10/6 14/11/6 13/12/6
f 10/10/7 11/9/7 15/12/7 14/11/7
f 11/10/8 12/9/8 16/12/8 15/11/8
f 12/9/9 9/10/9 13/11/9 16/12/9
f 17/13/6 18/14/6 22/15/6 21/16/6
f 18/14/7 19/13/7 23/16/7 22/15/7
f 19/14/8 20/13/8 24/16/8 23/15/8
f 20/13/9 17/14/9 21/15/9 24/16/9
f 21/17/1 22/18/1 26/2/1 25/1/1
f 22/18/1 23/19/1 27/3/1 26/2/1
f 23/19/1 24/20/1 28/4/1 27/3/1
f 24/20/1 21/17/1 25/1/1 28/4/1
f 25/10/8 26/9/8 30/21/8 29/22/8
f 26/10/9 27/9/9 31/21/9 30/22/9
f 27/10/6 28/9/6 32/21/6 31/22/6
f 28/10/7 25/9/7 29/21/7 32/22/7
