# Blender 4.1.1
# www.blender.org
mtllib city_cancha_edificio11.mtl
o Filler_SalsWindows
v -97.688232 10.824722 -116.889137
v -97.688232 8.350707 -116.889137
v -94.986778 8.350707 -116.889137
v -94.986778 10.824722 -116.889137
v -97.688232 7.438296 -116.889137
v -97.688232 4.964282 -116.889137
v -94.986778 4.964282 -116.889137
v -94.986778 7.438296 -116.889137
v -94.332779 7.438296 -116.889137
v -94.332779 4.964282 -116.889137
v -91.631325 4.964282 -116.889137
v -91.631325 7.438296 -116.889137
v -83.410080 14.324722 -116.276016
v -83.410080 11.850706 -116.276016
v -80.708618 11.850706 -116.276016
v -80.708618 14.324722 -116.276016
v -86.875870 10.824722 -116.276016
v -86.875870 8.350707 -116.276016
v -84.174416 8.350707 -116.276016
v -84.174416 10.824722 -116.276016
v -90.290314 10.824722 -116.276016
v -90.290314 8.350707 -116.276016
v -87.588852 8.350707 -116.276016
v -87.588852 10.824722 -116.276016
v -90.290314 7.438297 -116.276016
v -90.290314 4.964282 -116.276016
v -87.588852 4.964282 -116.276016
v -87.588852 7.438297 -116.276016
v -86.875870 7.438297 -116.276016
v -86.875870 4.964282 -116.276016
v -84.174416 4.964282 -116.276016
v -84.174416 7.438297 -116.276016
v -83.410080 7.438297 -116.276016
v -83.410080 4.964282 -116.276016
v -80.708618 4.964282 -116.276016
v -80.708618 7.438297 -116.276016
v -79.950165 14.101094 -118.619850
v -79.950165 11.942168 -118.619850
v -79.950165 11.942168 -117.295776
v -79.950165 14.101094 -117.295776
v -79.950165 14.101093 -120.268227
v -79.950165 11.942167 -120.268227
v -79.950165 11.942168 -118.944160
v -79.950165 14.101094 -118.944160
v -79.950165 10.629112 -132.651993
v -79.950165 8.470187 -132.651993
v -79.950165 8.470188 -131.327927
v -79.950165 10.629113 -131.327927
v -83.410080 14.324720 -133.944901
v -83.410080 11.850704 -133.944901
v -80.708618 11.850704 -133.944901
v -80.708618 14.324720 -133.944901
v -91.697197 10.824720 -134.110855
v -91.697197 8.350705 -134.110855
v -94.398651 8.350705 -134.110855
v -94.398651 10.824720 -134.110855
v -91.697197 7.438295 -134.110855
v -91.697197 4.964281 -134.110855
v -94.398651 4.964281 -134.110855
v -94.398651 7.438295 -134.110855
v -94.889236 7.438295 -134.110855
v -94.889236 4.964281 -134.110855
v -97.590691 4.964281 -134.110855
v -97.590691 7.438295 -134.110855
v -98.040039 10.530779 -132.147171
v -98.040039 8.371852 -132.147171
v -98.040039 8.371851 -133.218216
v -98.040039 10.530778 -133.218216
v -98.040039 10.530779 -130.498810
v -98.040039 8.371852 -130.498810
v -98.040039 8.371852 -131.569855
v -98.040039 10.530779 -131.569855
v -98.040039 7.105724 -130.498810
v -98.040039 4.946799 -130.498810
v -98.040039 4.946799 -131.569855
v -98.040039 7.105724 -131.569855
v -98.064644 7.213809 -124.061302
v -98.064644 5.054883 -124.061302
v -98.064644 5.054883 -122.990257
v -98.064644 7.213809 -122.990257
vn -0.0000 -0.0000 1.0000
vn 1.0000 -0.0000 -0.0000
vn -0.0000 -0.0000 -1.0000
vn -1.0000 -0.0000 -0.0000
vt 0.071332 0.669431
vt 0.071332 0.590355
vt 0.001773 0.590355
vt 0.001773 0.669431
vt 0.071930 0.669431
vt 0.071930 0.591253
vt 0.001294 0.591253
vt 0.001294 0.669431
vt 0.071026 0.669431
vt 0.071026 0.590355
vt 0.002005 0.590355
vt 0.002005 0.669431
vt 0.111380 0.740561
vt 0.070086 0.740561
vt 0.070086 0.671208
vt 0.111380 0.671208
vt 0.110977 0.740561
vt 0.110977 0.671208
vt 0.070400 0.671208
vt 0.070401 0.740561
s 1
usemtl FillerBuildings1.012
f 1/1/1 2/2/1 3/3/1 4/4/1
f 5/5/1 6/6/1 7/7/1 8/8/1
f 9/9/1 10/10/1 11/11/1 12/12/1
f 13/9/1 14/10/1 15/11/1 16/12/1
f 17/1/1 18/2/1 19/3/1 20/4/1
f 21/1/1 22/2/1 23/3/1 24/4/1
f 25/5/1 26/6/1 27/7/1 28/8/1
f 29/5/1 30/6/1 31/7/1 32/8/1
f 33/9/1 34/10/1 35/11/1 36/12/1
f 37/13/2 40/14/2 39/15/2 38/16/2
f 41/13/2 44/14/2 43/15/2 42/16/2
f 45/13/2 48/14/2 47/15/2 46/16/2
f 49/9/3 52/12/3 51/11/3 50/10/3
f 53/1/3 54/2/3 55/3/3 56/4/3
f 57/5/3 58/6/3 59/7/3 60/8/3
f 61/9/3 62/10/3 63/11/3 64/12/3
f 65/13/4 68/14/4 67/15/4 66/16/4
f 69/13/4 72/14/4 71/15/4 70/16/4
f 73/13/4 76/14/4 75/15/4 74/16/4
f 77/17/4 78/18/4 79/19/4 80/20/4
