# Blender 4.1.1
# www.blender.org
mtllib city_cancha_edificio29.mtl
o pCube17.002
v -97.908150 1.317857 -117.270882
v -98.279305 1.317857 -117.270882
v -97.908150 2.483514 -117.270882
v -98.279305 2.483514 -117.270882
v -97.908150 2.483514 -118.012329
v -98.279305 2.483514 -118.012329
v -97.908150 1.317857 -118.012329
v -98.279305 1.317857 -118.012329
vn -0.0000 -0.0000 1.0000
vn -0.0000 1.0000 -0.0000
vn -0.0000 -0.0000 -1.0000
vn -0.0000 -1.0000 -0.0000
vn -1.0000 -0.0000 -0.0000
vt 0.589811 0.405982
vt 0.589811 0.410584
vt 0.571178 0.410584
vt 0.571178 0.405982
vt 0.558812 0.410584
vt 0.558812 0.405982
vt 0.546446 0.410584
vt 0.546446 0.405982
vt 0.534080 0.410584
vt 0.534080 0.405982
vt 0.632266 0.023020
vt 0.647225 0.023020
vt 0.647225 0.049051
vt 0.632266 0.049051
s 1
usemtl FillerBuildings1.032
f 1/1/1 3/4/1 4/3/1 2/2/1
f 3/4/2 5/6/2 6/5/2 4/3/2
f 5/6/3 7/8/3 8/7/3 6/5/3
f 7/8/4 1/10/4 2/9/4 8/7/4
f 2/11/5 4/14/5 6/13/5 8/12/5
