# Blender 4.1.1
# www.blender.org
mtllib city_cancha_edificio12.mtl
o polySurface142.004
v -94.866188 12.257256 -131.566284
v -94.866188 12.257256 -132.795212
v -97.219856 12.257253 -132.795212
v -97.219856 12.257253 -131.566284
v -94.866188 14.188858 -131.566284
v -94.866188 14.188858 -132.795212
v -97.219856 14.188854 -132.795212
v -97.219856 14.188854 -131.566284
v -97.219856 12.257253 -129.825958
v -94.866188 12.257256 -129.825958
v -94.866188 12.646452 -129.825958
v -97.219856 12.646448 -129.825958
vn -0.0000 1.0000 -0.0000
vn 1.0000 -0.0000 -0.0000
vn -0.0000 -0.0000 -1.0000
vn -1.0000 -0.0000 -0.0000
vn -0.0000 -0.0000 1.0000
vn -0.0000 0.7484 0.6633
vt 0.024456 0.560900
vt 0.089182 0.560900
vt 0.089182 0.589273
vt 0.024456 0.589273
vt 0.547935 0.284220
vt 0.524596 0.284193
vt 0.524596 0.337756
vt 0.547935 0.337744
vt 0.459905 0.284193
vt 0.459905 0.337756
vt 0.547935 0.284220
vt 0.601041 0.338071
vt 0.601041 0.276662
vt 0.589924 0.276871
vt 0.589924 0.337807
vt 0.589918 0.297594
vt 0.589918 0.284878
vt 0.547913 0.337807
vt 0.547913 0.276871
vt 0.589918 0.284878
vt 0.589918 0.297594
s 1
usemtl FillerBuildings1.013
f 5/1/1 6/2/1 7/3/1 8/4/1
f 1/5/2 2/6/2 6/7/2 5/8/2
f 2/9/3 3/6/3 7/7/3 6/10/3
f 3/6/4 4/11/4 8/8/4 7/7/4
f 9/12/5 10/13/5 11/14/5 12/15/5
f 1/5/2 5/8/2 11/16/2 10/17/2
f 5/18/6 8/15/6 12/14/6 11/19/6
f 8/8/4 4/11/4 9/20/4 12/21/4
