# Blender 4.1.1
# www.blender.org
mtllib city_cancha_edificio11.mtl
o pCylinder12.001
v -81.468323 15.735262 -121.495064
v -81.943558 15.735262 -121.495064
v -82.181175 15.735263 -121.083496
v -81.943558 15.735263 -120.671928
v -81.468323 15.735263 -120.671928
v -81.230705 15.735263 -121.083496
v -81.468323 16.448114 -121.495064
v -81.943558 16.448114 -121.495064
v -82.181175 16.448114 -121.083496
v -81.943558 16.448114 -120.671928
v -81.468323 16.448114 -120.671928
v -81.230705 16.448114 -121.083496
vn 0.5000 -0.0000 -0.8660
vn -0.5000 -0.0000 -0.8660
vn -1.0000 -0.0000 -0.0000
vn -0.5000 -0.0000 0.8660
vn 0.5000 -0.0000 0.8660
vn 1.0000 -0.0000 -0.0000
vn -0.0000 1.0000 -0.0000
vt 0.002422 0.671687
vt 0.013479 0.671687
vt 0.013479 0.690071
vt 0.002422 0.690071
vt 0.024536 0.671687
vt 0.024536 0.690071
vt 0.035593 0.671687
vt 0.035593 0.690071
vt 0.046650 0.671687
vt 0.046650 0.690071
vt 0.057706 0.671687
vt 0.057706 0.690071
vt 0.068763 0.671687
vt 0.068763 0.690071
vt 0.030638 0.723935
vt 0.011998 0.723935
vt 0.002678 0.707792
vt 0.011998 0.691649
vt 0.030639 0.691649
vt 0.039959 0.707792
s 1
usemtl FillerBuildings1.021
f 1/1/1 2/2/2 8/3/2 7/4/1
f 2/2/2 3/5/3 9/6/3 8/3/2
f 3/5/3 4/7/4 10/8/4 9/6/3
f 4/7/4 5/9/5 11/10/5 10/8/4
f 5/9/5 6/11/6 12/12/6 11/10/5
f 6/11/6 1/13/1 7/14/1 12/12/6
f 7/15/7 8/16/7 9/17/7 10/18/7 11/19/7 12/20/7
