# Blender 4.1.1
# www.blender.org
mtllib city_cancha_edificio12.mtl
o polySurface128.001
v -90.808594 4.478412 -116.333130
v -90.808594 3.417850 -116.333130
v -84.024307 3.417850 -116.333130
v -84.024307 4.478412 -116.333130
v -90.808594 4.478412 -116.149590
v -90.808594 3.417850 -116.149590
v -84.024307 3.417850 -116.149590
v -84.024307 4.478412 -116.149590
vn -0.0000 -0.0000 1.0000
vn -1.0000 -0.0000 -0.0000
vn -0.0000 -1.0000 -0.0000
vn 1.0000 -0.0000 -0.0000
vn -0.0000 1.0000 -0.0000
vt 0.429518 0.438516
vt 0.429518 0.400927
vt 0.591318 0.400927
vt 0.591318 0.438516
s 1
usemtl FillerBuildings1.013
f 5/1/1 6/2/1 7/3/1 8/4/1
f 1/1/2 2/2/2 6/2/2 5/1/2
f 2/2/3 3/3/3 7/3/3 6/2/3
f 3/3/4 4/4/4 8/4/4 7/3/4
f 4/4/5 1/1/5 5/1/5 8/4/5
