# Blender 4.1.1
# www.blender.org
mtllib city_edificio_arm6.mtl
o pCube105
v -187.500000 4.000000 -88.999992
v -176.521301 4.000000 -88.999992
v -187.500000 7.500000 -88.999992
v -176.521301 7.500000 -88.999992
v -187.500000 7.499999 -98.000000
v -176.521301 7.499999 -98.000000
v -187.500000 4.000000 -98.000000
v -176.521301 4.000000 -98.000000
vn -0.0000 -0.0000 -1.0000
vn 1.0000 -0.0000 -0.0000
vn -1.0000 -0.0000 -0.0000
vt 0.006953 0.524427
vt 0.205299 0.524427
vt 0.205299 0.404861
vt 0.006953 0.404861
vt 0.626911 0.104943
vt 0.430201 0.104943
vt 0.430201 0.222900
vt 0.626911 0.222900
s 1
usemtl FillerBuildings1.046
f 5/1/1 6/2/1 8/3/1 7/4/1
f 2/5/2 8/6/2 6/7/2 4/8/2
f 7/5/3 1/6/3 3/7/3 5/8/3
