# Blender 4.1.1
# www.blender.org
mtllib city_edificio_chino3.mtl
o pCube52
v -277.219025 4.996679 -80.465286
v -275.758087 4.996679 -80.465286
v -277.219025 6.972138 -80.465286
v -275.758087 6.972138 -80.465286
v -274.256165 4.996679 -80.465286
v -272.795197 4.996679 -80.465286
v -274.256165 6.972138 -80.465286
v -272.795197 6.972138 -80.465286
v -271.173462 7.494745 -80.465286
v -269.712524 7.494745 -80.465286
v -271.173462 9.470204 -80.465286
v -269.712524 9.470204 -80.465286
v -271.173462 4.996679 -80.465286
v -269.712524 4.996679 -80.465286
v -271.173462 6.972138 -80.465286
v -269.712524 6.972138 -80.465286
v -264.874908 4.996679 -80.465286
v -263.413971 4.996679 -80.465286
v -264.874908 6.972138 -80.465286
v -263.413971 6.972138 -80.465286
v -264.874908 11.049006 -80.465286
v -263.413971 11.049006 -80.465286
v -264.874908 13.024465 -80.465286
v -263.413971 13.024465 -80.465286
v -262.183777 11.049006 -80.465286
v -260.722839 11.049006 -80.465286
v -262.183777 13.024465 -80.465286
v -260.722839 13.024465 -80.465286
v -259.939636 11.049006 -81.571411
v -259.939636 11.049005 -83.032349
v -259.939636 13.024465 -81.571411
v -259.939636 13.024464 -83.032349
v -259.939636 11.049005 -87.699913
v -259.939636 11.049005 -89.160851
v -259.939636 13.024464 -87.699913
v -259.939636 13.024464 -89.160851
v -259.939636 7.494745 -81.571411
v -259.939636 7.494745 -83.032349
v -259.939636 9.470204 -81.571411
v -259.939636 9.470203 -83.032349
v -259.939636 4.996679 -81.571411
v -259.939636 4.996679 -83.032349
v -259.939636 6.972138 -81.571411
v -259.939636 6.972138 -83.032349
v -259.939636 4.996678 -87.699913
v -259.939636 4.996678 -89.160851
v -259.939636 6.972137 -87.699913
v -259.939636 6.972137 -89.160851
v -259.939636 7.494744 -96.152031
v -259.939636 7.494744 -97.612976
v -259.939636 9.470202 -96.152031
v -259.939636 9.470202 -97.612976
v -259.939636 4.996678 -96.152031
v -259.939636 4.996678 -97.612976
v -259.939636 6.972137 -96.152031
v -259.939636 6.972137 -97.612976
v -264.674622 7.494744 -99.095253
v -263.213684 7.494744 -99.095253
v -264.674622 9.470202 -99.095253
v -263.213684 9.470202 -99.095253
v -262.750000 4.996677 -99.095253
v -261.289062 4.996677 -99.095253
v -262.750000 6.972136 -99.095253
v -261.289062 6.972136 -99.095253
v -264.674622 4.996677 -99.095253
v -263.213684 4.996677 -99.095253
v -264.674622 6.972136 -99.095253
v -263.213684 6.972136 -99.095253
v -275.027679 7.494744 -99.095253
v -273.566742 7.494744 -99.095253
v -275.027679 9.470202 -99.095253
v -273.566742 9.470202 -99.095253
v -275.027679 4.996677 -99.095253
v -273.566742 4.996677 -99.095253
v -275.027679 6.972136 -99.095253
v -273.566742 6.972136 -99.095253
v -278.052795 7.494745 -90.084625
v -278.052795 7.494745 -91.545563
v -278.052795 9.470203 -90.084625
v -278.052795 9.470203 -91.545563
v -278.052795 7.494745 -87.699913
v -278.052795 7.494745 -89.160851
v -278.052795 9.470203 -87.699913
v -278.052795 9.470203 -89.160851
v -278.052795 4.996678 -87.699913
v -278.052795 4.996678 -89.160851
v -278.052795 6.972137 -87.699913
v -278.052795 6.972137 -89.160851
v -278.052795 4.996678 -90.084625
v -278.052795 4.996678 -91.545563
v -278.052795 6.972137 -90.084625
v -278.052795 6.972137 -91.545563
vn -0.0000 -0.0000 1.0000
vn 1.0000 -0.0000 -0.0000
vn -0.0000 -0.0000 -1.0000
vn -1.0000 -0.0000 -0.0000
vt 0.592877 0.398975
vt 0.627874 0.398975
vt 0.627874 0.467147
vt 0.592877 0.467147
vt 0.700435 0.398975
vt 0.736285 0.398975
vt 0.736285 0.467147
vt 0.700435 0.467147
vt 0.592932 0.399472
vt 0.592932 0.466099
vt 0.627579 0.466099
vt 0.627579 0.399472
vt 0.593135 0.399085
vt 0.593135 0.468023
vt 0.627704 0.468023
vt 0.627704 0.399085
s 1
usemtl FillerBuildings1.066
f 1/1/1 2/2/1 4/3/1 3/4/1
f 5/5/1 6/6/1 8/7/1 7/8/1
f 9/5/1 10/6/1 12/7/1 11/8/1
f 13/5/1 14/6/1 16/7/1 15/8/1
f 17/1/1 18/2/1 20/3/1 19/4/1
f 21/1/1 22/2/1 24/3/1 23/4/1
f 25/1/1 26/2/1 28/3/1 27/4/1
f 29/1/2 30/2/2 32/3/2 31/4/2
f 33/5/2 34/6/2 36/7/2 35/8/2
f 37/5/2 38/6/2 40/7/2 39/8/2
f 41/1/2 42/2/2 44/3/2 43/4/2
f 45/5/2 46/6/2 48/7/2 47/8/2
f 49/5/2 50/6/2 52/7/2 51/8/2
f 53/1/2 54/2/2 56/3/2 55/4/2
f 57/5/3 59/8/3 60/7/3 58/6/3
f 61/9/3 63/10/3 64/11/3 62/12/3
f 65/5/3 67/8/3 68/7/3 66/6/3
f 69/13/3 71/14/3 72/15/3 70/16/3
f 73/5/3 75/8/3 76/7/3 74/6/3
f 77/1/4 79/4/4 80/3/4 78/2/4
f 81/5/4 83/8/4 84/7/4 82/6/4
f 85/1/4 87/4/4 88/3/4 86/2/4
f 89/5/4 91/8/4 92/7/4 90/6/4
