# Blender 4.1.1
# www.blender.org
mtllib city_tienda_armas4.mtl
o pCube31
v -176.000000 3.200000 -80.499992
v -152.000000 3.200000 -80.499992
v -176.000000 7.788046 -80.499992
v -152.000000 7.788046 -80.499992
v -176.000000 7.788045 -92.499992
v -152.000000 7.788045 -92.499992
v -176.000000 3.199999 -92.499992
v -152.000000 3.199999 -92.499992
v -176.000000 7.788044 -98.499992
v -152.000000 7.788044 -98.499992
v -152.000000 3.199999 -98.499992
v -176.000000 3.199999 -98.499992
v -176.000000 8.257185 -92.499992
v -152.000000 8.257185 -92.499992
v -152.000000 8.257185 -98.499992
v -176.000000 8.257185 -98.499992
vn -0.0000 -0.0000 1.0000
vn -0.0000 -0.0000 -1.0000
vn 1.0000 -0.0000 -0.0000
vn -1.0000 -0.0000 -0.0000
vn -0.0000 1.0000 -0.0000
vt 0.000609 0.117596
vt 0.390995 0.117596
vt 0.390995 0.194203
vt 0.000609 0.194203
vt 0.000609 0.258876
vt 0.390995 0.258876
vt 0.390995 0.182269
vt 0.000609 0.182269
vt 0.803037 0.305314
vt 0.999298 0.305314
vt 0.999298 0.420215
vt 0.803037 0.420215
vt 0.803037 0.305314
vt 0.999298 0.305314
vt 0.999298 0.420215
vt 0.803037 0.420215
vt 0.393605 0.909631
vt 0.005808 0.909631
vt 0.005808 0.999388
vt 0.393605 0.999388
vt 0.806560 0.420181
vt 0.806560 0.305328
vt 0.903391 0.305328
vt 0.903391 0.420181
vt 0.999289 0.305328
vt 0.999289 0.420181
vt 0.902458 0.420181
vt 0.902458 0.305328
vt 0.855622 0.495079
vt 0.945164 0.495079
vt 0.945164 0.499634
vt 0.855622 0.499634
vt 0.390995 0.260404
vt 0.000609 0.260404
vt 0.000609 0.279275
vt 0.390995 0.279275
s 1
usemtl FillerBuildings1.038
f 1/1/1 2/2/1 4/3/1 3/4/1
f 9/5/2 10/6/2 11/7/2 12/8/2
f 2/9/3 8/10/3 6/11/3 4/12/3
f 7/13/4 1/14/4 3/15/4 5/16/4
f 13/17/5 14/18/5 15/19/5 16/20/5
f 6/21/3 8/22/3 11/23/3 10/24/3
f 7/25/4 5/26/4 9/27/4 12/28/4
f 5/4/1 6/3/1 14/3/1 13/4/1
f 6/29/3 10/30/3 15/31/3 14/32/3
f 10/33/2 9/34/2 16/35/2 15/36/2
f 9/30/4 5/29/4 13/32/4 16/31/4
