# Blender 4.1.1
# www.blender.org
mtllib city_paramount14.mtl
o pCube5
v -223.625595 6.303161 -79.388313
v -223.470947 6.633151 -79.388313
v -223.325974 6.323785 -79.388313
v -223.470947 6.533733 -80.500000
v -223.325974 6.224366 -80.500000
v -223.625595 6.203742 -80.500000
vn 0.9048 0.4240 -0.0379
vn -0.9048 0.4240 -0.0379
vt 0.977464 0.606953
vt 0.977362 0.593518
vt 0.999539 0.591583
vt 0.999590 0.603596
vt 0.977362 0.593518
vt 0.999539 0.591583
s 1
usemtl Paramount.013
f 2/1/1 3/2/1 5/3/1 4/4/1
f 6/5/2 1/6/2 2/4/2 4/1/2
