# Blender 4.1.1
# www.blender.org
mtllib city_paramount1.mtl
o pCube2.001
v -212.000000 0.200000 -80.500000
v -206.000000 0.200000 -80.500000
v -212.000000 3.200000 -80.500000
v -206.000015 3.200000 -80.500000
v -206.000000 3.199999 -92.500000
v -206.000000 0.199999 -92.500000
v -206.000015 3.200000 -80.500000
v -206.000000 0.200000 -80.500000
vn 1.0000 -0.0000 -0.0000
vn -0.0000 -0.0000 1.0000
vt 0.373619 0.409196
vt 0.740954 0.409196
vt 0.740954 0.540266
vt 0.373619 0.540266
vt 0.000888 0.407693
vt 0.185229 0.407693
vt 0.185229 0.538861
vt 0.000888 0.538861
s 1
usemtl Paramount.001
f 2/1/1 6/2/1 5/3/1 4/4/1
f 1/5/2 8/6/2 7/7/2 3/8/2
