# Blender 4.1.1
# www.blender.org
mtllib city_paramount7.mtl
o polySurface1
v -224.181793 3.103029 -98.584221
v -224.181793 3.103030 -80.318214
v -205.919754 3.103030 -80.318214
v -205.919754 3.103029 -98.584221
v -224.181793 3.359870 -98.584221
v -224.181793 3.359871 -80.318214
v -205.919754 3.359871 -80.318214
v -205.919754 3.359870 -98.584221
v -224.181793 3.359870 -98.584221
v -205.919754 3.359869 -98.584221
vn -1.0000 -0.0000 -0.0000
vn -0.0000 -0.0000 1.0000
vn 1.0000 -0.0000 -0.0000
vn -0.0000 -0.0000 -1.0000
vn -0.0000 1.0000 -0.0000
vt 0.003821 0.142718
vt 0.367165 0.142718
vt 0.368230 0.151360
vt 0.002905 0.151360
vt 0.375763 0.050061
vt 0.734973 0.050061
vt 0.737711 0.401814
vt 0.377375 0.401814
s 1
usemtl Paramount.007
f 1/1/1 2/2/1 6/3/1 5/4/1
f 2/1/2 3/2/2 7/3/2 6/4/2
f 3/1/3 4/2/3 8/3/3 7/4/3
f 4/1/4 1/2/4 5/3/4 8/4/4
f 6/5/5 7/6/5 10/7/5 9/8/5
