# Blender 4.1.1
# www.blender.org
mtllib city_paramount4.mtl
o pCube101
v -206.000000 0.199999 -92.500000
v -206.000000 3.199999 -92.500000
v -212.000000 3.199999 -98.499992
v -206.000000 3.199999 -98.499992
v -212.000000 0.199999 -98.499992
v -206.000000 0.199999 -98.499992
v -206.000000 0.199999 -98.499992
v -206.000000 3.199999 -98.499992
vn 1.0000 -0.0000 -0.0000
vn -0.0000 -0.0000 -1.0000
vt 0.740954 0.409196
vt 0.533909 0.409196
vt 0.533909 0.540266
vt 0.740954 0.540266
vt 0.737471 0.540266
vt 0.554515 0.540266
vt 0.554515 0.409196
vt 0.737471 0.409196
s 1
usemtl Paramount.004
f 1/1/1 6/2/1 4/3/1 2/4/1
f 3/5/2 8/6/2 7/7/2 5/8/2
